<svg xmlns="http://www.w3.org/2000/svg" viewBox="0 0 500 500"><g id="freepik--Character--inject-64"><path d="M223.88,255.59c39.08,47.09,69.41,84,67.35,100-4.63,35.78-24.1,40.88-27.59,40.1-23.79-5.34-58.15-87.69-71.09-129.53C181,228.79,203,230.47,223.88,255.59Z" style="fill:#0424AC"></path><path d="M288,341.85a77.31,77.31,0,0,0-11,8.08c-5,4.36-9.53,9.1-14.74,13.17a83.63,83.63,0,0,1-15.41,9.64c-1.76.84-3.54,1.63-5.35,2.33q-1.67-2.43-3.33-5.06a76.82,76.82,0,0,0,16.28-8.54c5.24-3.58,9.94-7.86,14.87-11.84a99.81,99.81,0,0,1,15-10.08q1-.57,2.1-1.11C287,339.61,287.54,340.75,288,341.85ZM272.09,316a84.47,84.47,0,0,1-10.77,3.14c-16.68,3.35-30.87-7.09-45.14-14.46A98.06,98.06,0,0,1,230,291.58a50.27,50.27,0,0,1,11.64-6.69,48.67,48.67,0,0,1,5-1.66l-3.71-4.56a49.71,49.71,0,0,0-11.6,5.15c-7.74,4.74-14.1,11.4-20.14,18.08l-.23.25-1.05-.46q-2.76-1.17-5.59-2.13c1.62,4.19,3.33,8.46,5.11,12.76.55-.63,1.1-1.27,1.66-1.9l1-1.15c5.08,2.51,10,5.39,15,8,8.27,4.36,17.37,8.46,26.92,8.25,5.38-.12,10.44-1.93,15.31-4.07l5.06-2.24C273.65,318.18,272.88,317.09,272.09,316Zm-52.63-65.36a76,76,0,0,1-7.75,3.78c-6.89,2.93-14.57,2.68-21.76,1a42.08,42.08,0,0,1-.59-6.27,51.9,51.9,0,0,0,5.33,1.11,40.62,40.62,0,0,0,11,.07,37.52,37.52,0,0,0,9.3-2.05c-4.26-1.46-8.55-2.81-12.92-3.88a72.27,72.27,0,0,0-11.76-1.93,7.2,7.2,0,0,1,6.67-5.16c2.16.35,4.3.8,6.43,1.32C208.21,240.62,213.79,244.71,219.46,250.63Z" style="opacity:0.1"></path><path d="M261.37,394.92c-23.65-9.74-56.28-88.28-68.82-128.8-3.9-12.61-4-20.76-1.54-25.08Z" style="opacity:0.1"></path><path d="M237,439.28,56.39,439c.45-3.72,38.13-171.26,81.82-209.85,15-13.26,43.71-3.41,47.31-.47C220.46,257.18,239.64,437.1,237,439.28Z" style="fill:#0424AC"></path><path d="M237,439.28,56.39,439c.06-.5.78-3.91,2.1-9.53.07-.35.16-.7.24-1.06,1.24-5.27,2.94-12.27,5.05-20.52.54-2.12,1.11-4.33,1.71-6.61,5.08-19.36,12.07-44.05,20.41-68.9.61-1.84,1.24-3.68,1.87-5.53.42-1.22.85-2.43,1.27-3.65l1.45-4.11a488.69,488.69,0,0,1,19.83-48.34q1.32-2.7,2.65-5.31c5.46-10.71,11.15-20.1,17-27.44a75.17,75.17,0,0,1,5.5-6.24c.91-.93,1.83-1.8,2.75-2.61,15-13.26,43.71-3.41,47.31-.47a37.53,37.53,0,0,1,7.09,8.1,72.49,72.49,0,0,1,3.94,6.52q1.86,3.45,3.66,7.43,1.26,2.81,2.49,5.85c4.7,11.63,9,25.67,12.75,40.75.54,2.12,1.06,4.27,1.58,6.44.12.52.25,1.05.37,1.57q.9,3.81,1.76,7.67c4.43,19.86,8.09,40.63,10.92,59.46q.46,3,.88,5.89c1.16,8,2.16,15.55,3,22.45.15,1.27.31,2.52.45,3.75C236.82,424.88,237.73,438.69,237,439.28Z" style="fill:#0424AC"></path><path d="M234.42,404.53c-3.27,1.33-6.45,2.87-9.62,4.43-5.68,2.81-11.45,5.86-17.63,7.43a34.9,34.9,0,0,1-17.55.05c-10.52-2.77-19-10-27.31-16.73a97.58,97.58,0,0,0-16.24-11.21l-.58.39c-8,5.48-15.35,11.78-22.81,17.93s-15.29,12.31-24,16.66c-9.3,4.64-19.29,7.49-29.76,7.2a59,59,0,0,1-10.42-1.24c.07-.35.16-.7.24-1.06a54,54,0,0,0,20.46-.33C89,425.94,97.53,420.9,105.5,415c12-9,22.38-20.21,34.43-29.15A44.42,44.42,0,0,0,133.2,384c-12-2.25-24.7.09-35.55,5.56-10.55,5.32-20,12.62-30.93,17.22-1,.4-1.94.78-2.94,1.12.54-2.12,1.11-4.33,1.71-6.61A118.62,118.62,0,0,0,76,395.46c10.14-6.12,19.94-12.94,31.53-16,12.22-3.28,25.37-3,37.16,1.76.41.17.81.34,1.2.52,1.63-1,3.29-2,5-3a61.85,61.85,0,0,1,31.2-7.59c13.14.27,26.14,3.51,39.32,2.6a56,56,0,0,0,8.67-1.29q.46,3,.88,5.89l-1.2.25a74.8,74.8,0,0,1-19.48,1c-13-.87-26.26-4-39.29-1.83a57.89,57.89,0,0,0-19,7.06c7,4.16,13.18,9.66,19.53,14.69,7.85,6.2,16.73,12.24,27.14,12.1,12.42-.16,23.41-7,34.93-10.72l.39-.12C234.12,402.05,234.28,403.3,234.42,404.53Zm-17-99.22-1.22-.64.85-.93c-.52-2.17-1-4.32-1.58-6.44-1.44,1.52-2.86,3.06-4.25,4.6l-.23.25-1.05-.46a74.42,74.42,0,0,0-31.2-6c-10.4.28-20.37,3-30,6.91-9.44,3.83-18.56,8.41-28.16,11.84a77,77,0,0,1-26.52,4.73c-1.2,0-2.39-.05-3.59-.12L89,323.17a67.71,67.71,0,0,0,23.33-.5c10.08-2.05,19.45-6.3,28.81-10.41s18.86-8.2,29-9.81a68.28,68.28,0,0,1,31,2.3c1.92.59,3.79,1.31,5.64,2.08a162.58,162.58,0,0,1-14.56,14.9,53.9,53.9,0,0,1-25.67,12.67c-23.51,4.43-46.88-4.73-70.06-7.09-2.88-.29-5.8-.46-8.72-.49-.63,1.85-1.26,3.69-1.87,5.53,1.75,0,3.5.14,5.26.29,23.75,2.08,47.17,10.95,71.23,8.31a58.64,58.64,0,0,0,29.09-11.06c7.41-5.55,13.55-12.53,19.62-19.47l1-1.15c2.38,1.17,4.72,2.43,7,3.71Q218.31,309.13,217.4,305.31Zm-14.7-48.76a43.82,43.82,0,0,1-14-1.41c-7.66-1.94-14.84-5.31-22-8.6-3.14,1.27-6.21,2.72-9.2,4.25-7.28,3.73-14.26,8-21.54,11.75a74.82,74.82,0,0,1-23.12,7.87c-.82.12-1.64.23-2.46.31q1.32-2.7,2.65-5.31a61.28,61.28,0,0,0,6.16-1.79c14.28-5,26.55-13.93,40.14-20.34a77.45,77.45,0,0,0-15.59-5A41.36,41.36,0,0,0,130,238a75.17,75.17,0,0,1,5.5-6.24,49.12,49.12,0,0,1,14.48,1.94,122.36,122.36,0,0,1,16.82,6.47,57.51,57.51,0,0,1,18.37-3.71,60.14,60.14,0,0,1,7.48.32,72.49,72.49,0,0,1,3.94,6.52,53.73,53.73,0,0,0-17.17-.37c-1.51.23-3,.55-4.47.92,6.42,2.85,12.82,5.42,19.78,6.47a37.31,37.31,0,0,0,5.52.41Q201.47,253.51,202.7,256.55Z" style="opacity:0.1"></path><path d="M179.52,275.76S147,248.07,127.35,250.11l-15.72,16s-5.37,2.18-7.31-1.19c-4.8-8.32-7.07-29.1,9.92-43.85,15.56-13.51,42.49-14.44,65.31-10.07,21.92,4.19,41.57,17.19,35.93,31.69S179.52,275.76,179.52,275.76Z" style="fill:#0424AC"></path><path d="M181.22,269s23.48-19.32,25.31-30S186.75,219.87,173,216.88c-21.33-4.61-35.49-2.29-46.44,9.68S181.22,269,181.22,269Z" style="opacity:0.1"></path><path d="M178.87,267.71c-10.71.34-25.07-18.84-29.43-32.9-.29-1,2.9-9.84,6.26-20.81,2-6.66,4.11-14.13,5.52-21.08.28-1.42,41.44,19.46,41.44,19.46s-7.25,13.69-9.64,25.83a15.64,15.64,0,0,0-.28,2.91,4.55,4.55,0,0,1,0,.48C192.49,247.2,189.22,267.37,178.87,267.71Z" style="fill:#d3766a"></path><path d="M163.86,193.65c-.36,12.16,1.17,42,24.33,47.29a27.07,27.07,0,0,0,4.51.67,2.29,2.29,0,0,0,0-.49,17.51,17.51,0,0,1,.27-2.91c2.39-12.15,9.65-25.85,9.65-25.85S173,197.3,163.86,193.65Z" style="fill:#263238"></path><path d="M171.88,136.72c-9.45,13.52-15.58,59.43-8,72.56,10.92,19,35.82,28.58,53.75,13.84,17.38-14.28,24.32-74.26,15.25-86.9C219.48,117.59,185.83,116.76,171.88,136.72Z" style="fill:#d3766a"></path><path d="M205.73,177c0-.12-.26.13-.27.25-.21,3.12-1,6.65-3.89,7.4-.09,0-.1.18,0,.17C205.05,184.64,206,180,205.73,177Z" style="fill:#263238"></path><path d="M203.28,173.44c-5-.88-6.35,9.1-1.76,9.91S207.43,174.18,203.28,173.44Z" style="fill:#263238"></path><path d="M223,179.47c0-.11.22.18.2.31-.53,3.08-.62,6.69,2,8.1.08.05,0,.2-.05.17C221.85,187.1,222,182.3,223,179.47Z" style="fill:#263238"></path><path d="M226.22,176.63c5,.32,4,10.34-.64,10.05S222,176.37,226.22,176.63Z" style="fill:#263238"></path><path d="M199.57,165.17a38.15,38.15,0,0,0,4.14-.1c1.58,0,2.85.07,4.2-.9a2.12,2.12,0,0,0,.47-2.55c-1-1.74-3-2.16-4.89-2.18a7.75,7.75,0,0,0-5.29,1.81C196.63,162.5,197.71,165,199.57,165.17Z" style="fill:#263238"></path><path d="M231.81,170a39.84,39.84,0,0,1-3.82-1.58c-1.46-.62-2.68-1-3.59-2.36a2.13,2.13,0,0,1,.49-2.55c1.58-1.26,3.55-.94,5.34-.26a7.75,7.75,0,0,1,4.28,3.59C235.52,168.57,233.59,170.54,231.81,170Z" style="fill:#263238"></path><path d="M196.55,205c.64.83,1.24,1.93,2.35,2.18a8.33,8.33,0,0,0,3.43-.31.1.1,0,0,1,.11.17,4.2,4.2,0,0,1-4.16,1.13,3.31,3.31,0,0,1-2-3.07C196.21,204.86,196.46,204.83,196.55,205Z" style="fill:#263238"></path><path d="M201.09,196.15a10.65,10.65,0,0,0,6.37,5.67,13.23,13.23,0,0,0,3.76.7,3.68,3.68,0,0,0,.74,0c.23,0,.43,0,.69,0a.75.75,0,0,0,.71-.61v0a1.69,1.69,0,0,0,0-.32v0l0-.27c.39-2.37.67-6,.67-6,.81.55,5,3.17,5.07,1.91.82-10.37,1.74-21.91.37-32.41a.29.29,0,0,0-.58,0c-1.19,9.94-.62,20-1.65,30-1.34-.74-3.51-2.05-4.76-2.2-.35.05-.4,7.06-.67,8.11a.27.27,0,0,1,0,.11c-4.07,0-6.91-1.68-10.42-4.9C201.22,195.71,200.94,195.88,201.09,196.15Z" style="fill:#263238"></path><path d="M210,201.12a12.6,12.6,0,0,1-5.54,3.17A5.6,5.6,0,0,1,201,204c-2.38-1-2.12-3.27-1.4-5.14a13.62,13.62,0,0,1,1.52-2.81A16.35,16.35,0,0,0,210,201.12Z" style="fill:#263238"></path><path d="M204.45,204.29A5.6,5.6,0,0,1,201,204c-2.38-1-2.12-3.27-1.4-5.14C202.22,199.53,204.58,201.69,204.45,204.29Z" style="fill:#ff98b9"></path><path d="M236.42,153.78c-18.12,8.95-38.25-11.39-38.25-11.39-7.16,12.14-19.83,8.75-19.83,8.75s-7.24,27.47-14.59,26.36c-11.22-1.67-9.23-40.26-4.62-47.24s14.4-7.53,14.4-7.53,1.53-5.71,9.22-10c8.5-4.77,33.82,6.92,33.82,6.92a24.83,24.83,0,0,1,8.08-8.18,7,7,0,0,1,9.85,2.35,16.7,16.7,0,0,0-3.67,6.5c-2.5,8,4.18,8.94,5.19,1.51a11.65,11.65,0,0,0-1.52-8c4-4.38,9.6-5.18,12.5-2.12C252.25,117.24,251.49,146.34,236.42,153.78Z" style="fill:#263238"></path><path d="M178,142.08a.37.37,0,1,0-.73.07c.19,5.74.4,11.54-.78,17.23s-6.18,19.34-14,16.52a.32.32,0,0,0-.27.58c5,3.32,9.64-3,12.07-7.5C178.68,160.82,179,151.06,178,142.08Z" style="fill:#263238"></path><path d="M246.62,111.25a.05.05,0,0,0-.09.06c7,12.1,6.85,27.87-2.73,38.7-12.05,13.63-30.67,1.07-41.69-7-.54-.4-1.23.37-.69.79,10.66,8.27,29.67,20.43,42,8.24C254.35,141.12,254.65,123.73,246.62,111.25Z" style="fill:#263238"></path><path d="M175.9,123c-11.19-.4-19.82,3.68-22.58,15.2s.13,24.44,6.91,34a.44.44,0,0,0,.72-.49c-4.58-7.95-7.64-16.42-7.4-25.72.18-6.88,2.07-14.32,7.57-18.91,4-3.31,9.95-3.38,14.82-3.63C176.22,123.45,176.17,123.05,175.9,123Z" style="fill:#263238"></path><path d="M219.52,122.46c-12.54-10.39-38.63-22.27-45.85.13-.06.19.25.29.32.11,8.54-22.26,32-8.36,45.17.31C219.48,123.22,219.81,122.7,219.52,122.46Z" style="fill:#263238"></path><path d="M172.65,176.27s-5.6-17.08-13.06-15.5S153.36,185,160,190.1a8,8,0,0,0,11.48-1Z" style="fill:#d3766a"></path><path d="M160.11,167.26a.11.11,0,0,0-.1.19c4.62,3.73,5.92,9.45,6.33,15.1-1-2.42-2.79-4.13-6-3.06-.16.06-.1.31.06.33a4.91,4.91,0,0,1,4.68,3.2,23.84,23.84,0,0,1,1.21,4.93c.1.55,1,.55,1,0a.66.66,0,0,1,0-.14C169.49,181.1,167.11,170.12,160.11,167.26Z" style="fill:#263238"></path><path d="M181.22,269s-27.25-39.64-58-41.63l4.14,22.73s18.18-1.21,52.17,25.65Z" style="fill:#0424AC"></path><path d="M119.16,251.09c5.53-1.08,11.16-.22,16.51,1.07a72.17,72.17,0,0,1,15.46,6,125.51,125.51,0,0,1,14.29,8.48l6.74,4.91,6.52,5.22.73.59.74-.45a139.33,139.33,0,0,0,15.75-11,77.76,77.76,0,0,0,7.18-6.4,48.52,48.52,0,0,0,6.15-7.35c-4.2,4.81-9.25,8.68-14.36,12.4-2.56,1.85-5.21,3.58-7.89,5.26s-5.37,3.37-8.1,4.9l1.47.14-6.54-5.41c-2.25-1.71-4.55-3.37-6.85-5s-4.75-3.09-7.2-4.52-5-2.78-7.58-3.9a66.7,66.7,0,0,0-16.18-5.3c-1.39-.29-2.81-.43-4.22-.62s-2.84-.19-4.26-.16A24.86,24.86,0,0,0,119.16,251.09Z" style="fill:#263238"></path><path d="M111.63,266.12a84.21,84.21,0,0,0,8.35-7.53,82.94,82.94,0,0,0,7.37-8.48,81.81,81.81,0,0,0-8.35,7.52A83.06,83.06,0,0,0,111.63,266.12Z" style="fill:#263238"></path><path d="M167.71,260.1A169,169,0,0,0,164.17,289c-.29,6.76,1.79,31.09,9.33,30.38s-4.37-16.64-6.24-29.49c-1.9-13,1.75-22.15,2.38-29.81Z" style="fill:#0424AC"></path><g style="opacity:0.1"><path d="M167.71,260.1A169,169,0,0,0,164.17,289c-.29,6.76,1.79,31.09,9.33,30.38s-4.37-16.64-6.24-29.49c-1.9-13,1.75-22.15,2.38-29.81Z"></path></g><path d="M195.24,259.13a153,153,0,0,1,5,25.87c.7,6.1.37,28.25-6.49,28.08s2.89-15.34,3.76-27.08c.89-11.92-3-19.92-4-26.81Z" style="fill:#0424AC"></path><g style="opacity:0.1"><path d="M195.24,259.13a153,153,0,0,1,5,25.87c.7,6.1.37,28.25-6.49,28.08s2.89-15.34,3.76-27.08c.89-11.92-3-19.92-4-26.81Z"></path></g><path d="M263.26,388.24c-13.76-12.46-33.71-51.55-53.6-110.57-3.25-9.65,51.66-39.24,56.21-29.35,5.73,12.46,36,84.45,36.93,88.25C311,368.69,272.4,396.52,263.26,388.24Z" style="fill:#d3766a"></path><path d="M204.31,245.32c-2.25,12.05,5.16,31.69,5.16,31.69l58.91-22.46s-4.87-19.21-2.57-29.49c.67-3,3.52-18.75,7.27-33.87,4.25-17.17,6.51-35.71,5.49-37.58-2-3.6-8.7-2.3-14.29,8.57s-12.82,34-13.62,35.24a9.87,9.87,0,0,1-1,1.1h0c-.59.31-17.93-.63-22.87,5.47S204,243.11,204.31,245.32Z" style="fill:#d3766a"></path><path d="M248.57,221.12s19-23,19.45-29.15,9.14-42.82,7.25-46.46-8.7-2.3-14.29,8.57-12.82,34-13.62,35.25S226.79,207.85,225.45,210,248.57,221.12,248.57,221.12Z" style="fill:#d3766a"></path><path d="M261.08,209.7c1.47-2.92,2.82-5.89,4.18-8.86q1-2.24,1.92-4.51c.3-.76.61-1.52.89-2.3.14-.38.27-.79.4-1.19a12.78,12.78,0,0,0,.28-1.26c1.25-6.37,2.48-12.79,3.67-19.2s2.34-12.8,3.33-19.29a20.63,20.63,0,0,0,.07-5,9.3,9.3,0,0,0-.64-2.5,4.15,4.15,0,0,0-1.7-2.08,3.4,3.4,0,0,0-2.66-.22,7.37,7.37,0,0,0-2.25,1.15,17.92,17.92,0,0,0-3.48,3.48,21,21,0,0,1,3.73-3.09,7.16,7.16,0,0,1,2.16-.91,2.65,2.65,0,0,1,2.06.32c1.17.79,1.57,2.45,1.69,4a19.23,19.23,0,0,1-.3,4.72c-1.28,6.35-2.53,12.78-3.71,19.18s-2.33,12.82-3.27,19.3a23.5,23.5,0,0,1-1.29,4.58c-.53,1.53-1.11,3.05-1.67,4.58Z" style="fill:#263238"></path><path d="M241.9,222s20.68-25.27,21.18-31.45,9.14-42.82,7.24-46.46-8.7-2.3-14.29,8.57-12.82,34-13.62,35.25-18.15,19.91-19.5,22S241.9,222,241.9,222Z" style="fill:#d3766a"></path><path d="M255.55,212.28c1.64-3.65,3.14-7.36,4.64-11.08.71-1.87,1.42-3.75,2.08-5.64.33-.95.66-1.9,1-2.87a22,22,0,0,0,.69-3q2.18-11.77,4.23-23.61l2-11.83.46-3a25.06,25.06,0,0,0,.34-3.07,12.17,12.17,0,0,0-.26-3.17,5.39,5.39,0,0,0-1.63-3,3.16,3.16,0,0,0-1.71-.72,4,4,0,0,0-1.73.24,9.19,9.19,0,0,0-2.73,1.62,27.42,27.42,0,0,0-4.17,4.46,35.1,35.1,0,0,0-5.47,10.7,37.34,37.34,0,0,1,6.12-10.17,28.11,28.11,0,0,1,4.18-4.13,8.15,8.15,0,0,1,2.44-1.34,2.17,2.17,0,0,1,2.22.34,4.17,4.17,0,0,1,1.08,2.27,12.38,12.38,0,0,1,.16,2.8c-.12,1.86-.59,3.87-.91,5.83l-2.07,11.81c-1.35,7.88-2.71,15.76-3.89,23.68a21.89,21.89,0,0,1-.54,2.88c-.25,1-.52,1.91-.81,2.86-.58,1.9-1.21,3.8-1.84,5.69Z" style="fill:#263238"></path><path d="M242.83,222.48s12.83-26.14,13.29-31.89,7.93-30.4,6.17-33.8-8.1-2.14-13.31,8-11.35,22.15-12.09,23.35S224.16,208,222.91,210,242.83,222.48,242.83,222.48Z" style="fill:#d3766a"></path><path d="M248.41,216.57c2-4.76,3.87-9.55,5.78-14.34,1-2.39,1.89-4.79,2.81-7.2l.68-1.81a14.33,14.33,0,0,0,.58-1.9c.32-1.26.59-2.53.84-3.79,1-5.07,1.9-10.15,2.61-15.27.36-2.55.7-5.11,1-7.68.13-1.29.26-2.58.35-3.88a24.32,24.32,0,0,0,0-4,3.26,3.26,0,0,0-1.17-2.21,3.36,3.36,0,0,0-2.43-.56,9.76,9.76,0,0,0-3.91,1.57,16.66,16.66,0,0,0-5.52,5.86c-2.51,4.54-4.87,9.1-7.27,13.66s-4.79,9.19-7,13.7c-1.26,2.22-2.61,4.43-3.93,6.63s-2.61,4.45-3.83,6.72c3.14-4.1,6.11-8.28,9-12.59l7.22-13.71c2.42-4.53,4.84-9.1,7.35-13.55a15.33,15.33,0,0,1,4.94-5.31,8,8,0,0,1,3.18-1.34,1.4,1.4,0,0,1,1.81,1.35,24,24,0,0,1,0,3.69c-.08,1.27-.19,2.55-.32,3.83-.26,2.55-.57,5.1-.91,7.64-.7,5.09-1.38,10.19-2.28,15.25-.22,1.26-.45,2.52-.73,3.76a29.78,29.78,0,0,1-1.14,3.63L253.51,202Z" style="fill:#263238"></path><path d="M237,189.46c-2.34,3.2-4.41,6.58-6.48,10s-4.13,6.76-6.18,10.15c-4.06,6.8-8.11,13.61-11.93,20.52-1.92,3.45-3.8,6.94-5.44,10.49-.41.88-.8,1.78-1.13,2.67-.19.45-.31.89-.45,1.33a7.59,7.59,0,0,0-.25,1.34c-.09,1-.23,1.92-.24,2.89l-.07,1.46v1.46A71.34,71.34,0,0,0,206,263.44,102.93,102.93,0,0,0,208.76,275a83,83,0,0,1-3.68-11.35,63.89,63.89,0,0,1-1.81-11.86,38.36,38.36,0,0,1,.12-6.06,9.23,9.23,0,0,1,.26-1.59c.14-.51.28-1,.46-1.5.34-1,.72-1.9,1.13-2.82,1.62-3.68,3.5-7.19,5.41-10.69q5.83-10.41,12.36-20.38,3.26-5,6.68-9.86c1.16-1.61,2.33-3.22,3.53-4.81A51.9,51.9,0,0,1,237,189.46Z" style="fill:#263238"></path><path d="M274.31,249.06,209.58,306s34.1,78.13,50.21,88.06c18.67,11.5,57.33-17.8,45.3-60Z" style="fill:#0424AC"></path><path d="M305.12,334.13A78.16,78.16,0,0,0,277,349.93c-5,4.36-9.53,9.1-14.74,13.17a83.63,83.63,0,0,1-15.41,9.64c-1,.46-1.94.91-2.93,1.33-1-1.65-2-3.37-3-5.13a79,79,0,0,0,13.58-7.47c5.24-3.58,9.94-7.86,14.87-11.84a99.81,99.81,0,0,1,15-10.08,84.61,84.61,0,0,1,20-7.79l.82,2.26ZM296,309q-1.86.43-3.72.9c-5.33,1.3-10.57,2.92-15.8,4.58-5,1.6-10,3.57-15.2,4.61-16.68,3.35-30.87-7.09-45.14-14.46A98.06,98.06,0,0,1,230,291.58a50.27,50.27,0,0,1,11.64-6.69,64.77,64.77,0,0,1,16.72-3.77c8.89-1,17.87-1,26.67-2.55l-1.42-3.91c-6.88.6-13.84.51-20.73.87-8.15.42-16.21,1.54-23.72,4.45l-29.55,26s.66,1.5,1.83,4.12c.23-.27.46-.54.7-.8,5.08,2.51,10,5.39,15,8,8.27,4.36,17.37,8.46,26.92,8.25,5.38-.12,10.44-1.93,15.31-4.07s10-4.49,15.1-6.42q6.09-2.28,12.26-4.21ZM276.61,255.4c-.83.28-1.66.55-2.5.8a59.49,59.49,0,0,1-10.31,2.1l8.41-7.39c.85-.2,1.7-.41,2.54-.63Z" style="opacity:0.1"></path><path d="M276.6,271.86c-23.84,24.46-48.17,42.19-52.91,46.4-.23.19-.52-.19-.29-.38,4.87-3.88,30.57-28.33,52.89-46.43C276.55,271.24,276.83,271.62,276.6,271.86Z" style="fill:#263238"></path><path d="M246.44,377.86c-5-9.28-10.06-18.53-15-27.86s-9.53-18.78-14-28.31c-2.48-5.26-4.44-10.32-6.78-15.64,2.36-2.1,4.06-3.89,6.55-6.28.33-.32-.14-.91-.51-.63-3,2.27-7.85,6.43-7.75,6.68q6,14.64,13,28.86t14.92,28.1q4.45,7.74,9.44,15.16C246.36,378,246.49,378,246.44,377.86Z" style="fill:#263238"></path><path d="M90.36,394.48c17.83-5.18,60-58.54,84.55-119.6,3.8-9.44-45.62-46.12-51.51-37C116,249.45,74,313.6,72.5,317.24,59.89,347.88,78.27,398,90.36,394.48Z" style="fill:#d3766a"></path><path d="M184.87,243.8c.5,12.25-9.65,30.63-9.65,30.63l-55.09-30.65s7.56-18.32,6.76-28.82c-.24-3.05-.81-19.06-2.35-34.56-1.76-17.6-1.35-36.27-.07-38,2.46-3.28,8.94-1,12.91,10.53s7.84,35.45,8.45,36.82a9.21,9.21,0,0,0,.87,1.23h0c.54.39,17.83,1.94,21.85,8.68S185.52,241.67,184.87,243.8Z" style="fill:#d3766a"></path><path d="M144.52,213.53S129,188.08,129.43,181.89s-2.93-43.68-.53-47,8.93-1,12.92,10.53,7.83,35.45,8.44,36.83S168,203.51,169,205.82,144.52,213.53,144.52,213.53Z" style="fill:#d3766a"></path><path d="M133.77,200.43c-1-3.09-2-6.22-2.88-9.36-.44-1.57-.85-3.15-1.25-4.74-.19-.8-.38-1.59-.55-2.4-.09-.4-.15-.83-.23-1.24a12.54,12.54,0,0,1-.1-1.29c-.32-6.48-.62-13-.89-19.52s-.48-13-.54-19.57a20.64,20.64,0,0,1,.65-5,9.3,9.3,0,0,1,1-2.38,4.18,4.18,0,0,1,2-1.81,3.4,3.4,0,0,1,2.66.15,7.29,7.29,0,0,1,2.06,1.47,17.81,17.81,0,0,1,2.95,3.93,21.39,21.39,0,0,0-3.25-3.59,7.24,7.24,0,0,0-2-1.2,2.65,2.65,0,0,0-2.09,0c-1.27.61-1.91,2.2-2.24,3.68a19.47,19.47,0,0,0-.38,4.71c.36,6.47.68,13,.93,19.52s.48,13,.48,19.57a24.57,24.57,0,0,0,.62,4.71c.31,1.59.67,3.18,1,4.77Z" style="fill:#263238"></path><path d="M151,215.37s-16.86-28-16.47-34.15-2.92-43.69-.53-47,8.94-1,12.92,10.53,7.83,35.44,8.44,36.82,15.13,22.31,16.15,24.62S151,215.37,151,215.37Z" style="fill:#d3766a"></path><path d="M138.87,203.78c-1.1-3.85-2.05-7.74-3-11.63q-.66-2.93-1.25-5.88c-.2-1-.38-2-.53-3a23,23,0,0,1-.26-3.06q-.47-12-.81-24l-.27-12,0-3a24.85,24.85,0,0,1,.1-3.09,12.56,12.56,0,0,1,.72-3.1,5.41,5.41,0,0,1,2-2.7,3.13,3.13,0,0,1,1.79-.47,4.16,4.16,0,0,1,1.68.48,9.27,9.27,0,0,1,2.48,2,27.4,27.4,0,0,1,3.48,5,34.78,34.78,0,0,1,3.89,11.37,37.46,37.46,0,0,0-4.61-11,27.39,27.39,0,0,0-3.54-4.68,8.14,8.14,0,0,0-2.22-1.68,2.2,2.2,0,0,0-2.25,0,4.16,4.16,0,0,0-1.39,2.09,11.88,11.88,0,0,0-.56,2.75c-.15,1.87,0,3.92.06,5.9l.36,12c.21,8,.43,16,.47,24a21.67,21.67,0,0,0,.12,2.92c.11,1,.25,2,.4,3,.3,2,.65,3.93,1,5.89Z" style="fill:#263238"></path><path d="M150,215.69s-9-27.71-8.6-33.46-3.5-31.22-1.27-34.33,8.32-1,12,9.8,8.06,23.55,8.63,24.84,9.76,21.48,10.71,23.63S150,215.69,150,215.69Z" style="fill:#d3766a"></path><path d="M145.33,209c-1.28-5-2.47-10-3.68-15q-.92-3.75-1.75-7.53l-.42-1.89a16.28,16.28,0,0,1-.3-2c-.13-1.3-.22-2.59-.29-3.88-.27-5.16-.43-10.31-.4-15.48,0-2.58,0-5.16.14-7.74,0-1.3.1-2.59.19-3.89a24.2,24.2,0,0,1,.53-4,3.3,3.3,0,0,1,1.48-2,3.34,3.34,0,0,1,2.48-.2,9.59,9.59,0,0,1,3.64,2.11,16.69,16.69,0,0,1,4.63,6.59c1.83,4.85,3.53,9.7,5.25,14.56s3.43,9.78,5,14.56c.93,2.38,2,4.76,2.94,7.13s1.94,4.78,2.83,7.2c-2.52-4.52-4.87-9.08-7.11-13.76l-5.19-14.59c-1.76-4.84-3.5-9.7-5.34-14.47a15.44,15.44,0,0,0-4.13-5.95,8,8,0,0,0-3-1.79,1.4,1.4,0,0,0-2,1.08,22.76,22.76,0,0,0-.5,3.66c-.11,1.27-.17,2.55-.23,3.83-.11,2.56-.17,5.13-.2,7.7,0,5.13-.09,10.28.08,15.41,0,1.28.09,2.56.19,3.83a29.26,29.26,0,0,0,.61,3.75l1.5,7.58Z" style="fill:#263238"></path><path d="M160.79,182.54l5.37,11.08c1.77,3.7,3.52,7.41,5.22,11.15,3.41,7.47,6.67,15,9.66,22.67,1.46,3.85,2.88,7.71,4,11.74a26.14,26.14,0,0,1,.66,3.12,8.7,8.7,0,0,1,.08,1.7l-.11,1.57a51.05,51.05,0,0,1-1,6.17,73.78,73.78,0,0,1-3.57,11.87,58.26,58.26,0,0,1-2.57,5.63,26.87,26.87,0,0,1-3.34,5.19,46.26,46.26,0,0,0,5-11.16c.64-1.94,1.21-3.89,1.69-5.87s.92-4,1.27-6,.59-4,.74-6l.07-1.5a7,7,0,0,0-.1-1.36c-.16-.95-.41-1.92-.67-2.89-1.09-3.88-2.55-7.71-4-11.52-2.93-7.64-6.1-15.2-9.21-22.78S163.65,190.25,160.79,182.54Z" style="fill:#263238"></path><path d="M114.94,237.46l50.58,80s-58.29,73.12-75.63,80.68C69.78,407,52.75,354.47,70.6,314.39Z" style="fill:#0424AC"></path><path d="M113.17,378.17c-2.88,3-5.66,5.77-8.28,8.27a60.74,60.74,0,0,0-7.24,3.08c-5.38,2.71-10.47,5.94-15.62,9.06a14.87,14.87,0,0,1-5.46-3.46c9.94-6,19.59-12.66,31-15.71C109.39,378.91,111.27,378.49,113.17,378.17Zm41.53-77.79c-2,.68-4,1.43-5.94,2.23-9.44,3.83-18.56,8.41-28.16,11.84a77,77,0,0,1-26.52,4.73A72.8,72.8,0,0,1,70.36,315c-.36.81-.7,1.62-1,2.44a72.79,72.79,0,0,0,16.33,5.2,68.94,68.94,0,0,0,26.7.07c10.08-2.05,19.45-6.3,28.81-10.41,5.49-2.41,11-4.83,16.77-6.73ZM96.49,327.31a83.67,83.67,0,0,0-30.95,2.3q-.62,2.63-1.06,5.25a77.69,77.69,0,0,1,26.68-2.22c18.35,1.6,36.5,7.27,54.89,8.54,1.64-1.95,3.22-3.83,4.71-5.63C132.57,335.06,114.47,329.14,96.49,327.31ZM132,264.45a70.74,70.74,0,0,1-19.21,6,63.2,63.2,0,0,1-16.94.18l2-3.52a62.72,62.72,0,0,0,21.26-3.45,95.15,95.15,0,0,0,9.76-4.08Zm-14.54-23a57.27,57.27,0,0,0-6.65,3.21l4.14-7.18Z" style="opacity:0.1"></path><path d="M147.32,323.48c-20.44-27.36-34.16-54.16-37.58-59.5-.16-.25.26-.48.41-.22,3.08,5.41,23.22,34.61,37.63,59.48C148,323.52,147.52,323.74,147.32,323.48Z" style="fill:#263238"></path><path d="M160.05,307.36a.44.44,0,0,0-.75.46c1.35,2.37,4.6,8.45,4.64,9,0,.36-9.73,12.27-12.93,16.32q-9.51,12.08-19.52,23.75T110.88,380c-3.23,3.48-6.41,7.07-9.9,10.3-3.12,2.88-6.68,5.5-10.86,6.57-7.43,1.92-15.62-2.42-19.07-9.1A15.77,15.77,0,0,1,70,385.11c0-.09-.17-.07-.15,0,1.24,7.88,8.61,13.74,16.46,13.94,9.44.24,16.55-7.59,22.48-13.9q11-11.67,21.47-23.79t20.53-24.75c3.31-4.17,15.19-19.64,15.29-20S160.82,308.53,160.05,307.36Z" style="fill:#263238"></path><path d="M119.53,243.87c-.32-.63-4.66-7.66-4.81-7.41-2.25,3.7-4.52,7.8-6.6,11.6-1,1.88-2.08,3.75-3.09,5.65a52.63,52.63,0,0,0-2.84,5.67c0,.09.11.16.16.09a49.61,49.61,0,0,0,3.3-5.28c1.11-1.88,2.18-3.79,3.27-5.69,2-3.56,4.18-7.31,6-10.31.61,1,3.67,5.35,4.12,5.94A.26.26,0,0,0,119.53,243.87Z" style="fill:#263238"></path></g><g id="freepik--Device--inject-64"><rect x="202" y="432.09" width="148.25" height="6.65" style="fill:#455a64"></rect><rect x="202" y="432.1" width="74.62" height="6.65" style="fill:#263238"></rect><polygon points="282.39 438.74 426.88 438.71 447.27 340.58 302.79 340.6 282.39 438.74" style="fill:#263238"></polygon><polygon points="289.37 438.74 433.85 438.71 454.25 340.58 309.76 340.6 289.37 438.74" style="fill:#37474f"></polygon><path d="M353.63,391.85a8.52,8.52,0,0,0,8.62,9.63,11,11,0,0,0,10.64-9.63,8.51,8.51,0,0,0-8.62-9.63A11,11,0,0,0,353.63,391.85Z" style="fill:#fff"></path></g><g id="freepik--Plant--inject-64"><path d="M423.49,405S431,378,437,368.84s17.22-19.26,17.22-19.26S454,391.24,423.49,405Z" style="fill:#0424AC"></path><path d="M424,404.57a128.14,128.14,0,0,0,6.86-13.09,91.43,91.43,0,0,1,3.74-14.21c0-.09.15,0,.13.05-1,4.27-2.16,8.5-3.21,12.75,3-6.57,5.92-13.23,9.54-19.45a41.58,41.58,0,0,1,3.49-8.64c0-.08.17,0,.13,0a55.31,55.31,0,0,0-2.34,6.49,64.16,64.16,0,0,1,5.72-7.9c.13-.16.39,0,.26.18C443.51,367,440.17,374,437,381.11a108.16,108.16,0,0,0,9.45-11.81s.09,0,.06.05a97.35,97.35,0,0,1-10.11,13.11c-2.32,5.21-4.6,10.44-7.36,15.4,5.52-4.66,9.77-10.7,14-16.52a.13.13,0,0,1,.21.14c-4.21,6.39-8.56,12.41-14.61,17.14a66.17,66.17,0,0,1-4,6.31A.32.32,0,0,1,424,404.57Z" style="fill:#263238"></path><path d="M421.16,407.47s13.53-24.92,9.6-49.07-8.14-32.76-8.14-32.76S401.35,363.21,421.16,407.47Z" style="fill:#0424AC"></path><path d="M415.6,368.3a118,118,0,0,0,5.23,20.12c0-8.87.2-17.73.44-26.6a68.19,68.19,0,0,1-2.55-16.5c0-.17.23-.16.25,0a93.24,93.24,0,0,0,2.37,14.21c.2-7.32.45-14.63.71-21.94a.1.1,0,0,1,.19,0c0,11.42,0,22.84-.07,34.27a92.22,92.22,0,0,0,3.9-13.58s.08,0,.08,0a53.12,53.12,0,0,1-4,15.44c0,7.3-.13,14.6-.29,21.9,2.29-7.76,4.73-15.28,5.39-23.48,0-.11.18-.11.17,0-.17,9.05-2.51,18.23-5.49,26.74a.47.47,0,0,1-.15.21c-.07,2.67-.14,5.34-.23,8a.3.3,0,0,1-.6,0q-.15-8.19-.13-16.38a73.44,73.44,0,0,1-5.34-22.43C415.48,368.25,415.59,368.23,415.6,368.3Z" style="fill:#263238"></path><path d="M416.53,364.45a45.73,45.73,0,0,1,.94,6.58c0,.07-.11.08-.12,0a46.82,46.82,0,0,1-1.12-6.56C416.21,364.31,416.5,364.28,416.53,364.45Z" style="fill:#263238"></path><path d="M424.44,346.24c0-.08.13-.06.13,0a16.69,16.69,0,0,1-.68,4.54c0,.12-.21.06-.18-.06C424,349.24,424.19,347.74,424.44,346.24Z" style="fill:#263238"></path><path d="M416.22,409.37s.55-26-6.91-38.93a56,56,0,0,0-19.83-19.51S394.47,396.77,416.22,409.37Z" style="fill:#0424AC"></path><path d="M402.63,387.13a96.13,96.13,0,0,0,10.09,12.8q-2.24-8-5.16-15.68c-4.18-3.67-8.33-7.47-10.9-12.49,0-.08.08-.15.12-.07,2.76,4.44,6.45,8,10.33,11.42a202.08,202.08,0,0,0-10.38-22.62.16.16,0,0,1,.28-.16,124.24,124.24,0,0,1,6.52,11.87c-.7-2.78-1.26-5.63-2-8.38a.06.06,0,0,1,.12,0,47.2,47.2,0,0,1,3.06,11,132.8,132.8,0,0,1,6.57,17.8c-.19-3.9-.44-7.78-.84-11.67,0-.07.12-.09.13,0a62.64,62.64,0,0,1,1.13,13.1q1.62,5.82,2.71,11.75c0,.11-.14.15-.16.05-.41-1.66-.85-3.3-1.3-4.94,0,0-.06,0-.08,0a52.29,52.29,0,0,1-10.3-13.68S402.61,387.11,402.63,387.13Z" style="fill:#263238"></path><path d="M394,366c.83.9,1.6,1.84,2.4,2.77a21.28,21.28,0,0,1,2.15,2.51s0,.08-.06.06a13.08,13.08,0,0,1-2.48-2.45,20.67,20.67,0,0,1-2.13-2.8A.08.08,0,0,1,394,366Z" style="fill:#263238"></path><path d="M438.39,406.2l-.94,8.34-2.84,25.2H409.9l-2.84-25.2-.94-8.34h32.27Z" style="fill:#dbdbdb"></path><path d="M438.39,406.2l-.94,8.34H407.06l-.94-8.34h32.27Z" style="fill:#a6a6a6"></path><rect x="403.93" y="400.15" width="36.65" height="9.44" transform="translate(844.51 809.75) rotate(180)" style="fill:#dbdbdb"></rect></g><g id="freepik--Lines--inject-64"><polygon points="168.77 100.99 143.9 74.15 151.54 69.17 168.77 100.99" style="fill:#455a64"></polygon><polygon points="161.16 109.68 138.78 105.79 140.69 99.43 161.16 109.68" style="fill:#455a64"></polygon><polygon points="173.75 97.64 171.72 75.25 178.52 74.63 173.75 97.64" style="fill:#455a64"></polygon></g><g id="freepik--Table--inject-64"><polygon points="45.75 439.07 96.82 438.83 147.88 438.74 250 438.58 352.12 438.74 403.19 438.83 454.25 439.07 403.19 439.32 352.12 439.41 250 439.57 147.88 439.41 96.82 439.32 45.75 439.07" style="fill:#263238"></polygon></g></svg>